# xmcd CD database file
#
# Track frame offsets:
#	300
#	44621
#	71341
#	103120
#	134602
#	176860
#	222157
#	245684
#	276260
#	332776
#
# Disc length: 4770 seconds
#
# Revision: 0
# Processed by: cddbd v1.5.2PL0 Copyright (c) Steve Scherf et al.
# Submitted via: CDex 1.51
#
DISCID=a5129e0a
DTITLE=Charles Dickens - Karácsonyi ének 2
DYEAR=2006
DGENRE=Jazz
TTITLE0=Belle elhagyja Scrooge-ot
TTITLE1=Belle új családja
TTITLE2=A mostani karácsony szelleme
TTITLE3=A csodafáklya
TTITLE4=A Cratchit család ünnepel
TTITLE5=Scrooge egészségére
TTITLE6=Bányában, tengeren
TTITLE7=Scrooge unakaöccse
TTITLE8=Inség és tudatlanság
TTITLE9=Inség és tudatlanság .
EXTD=YEAR: 2006
EXTT0=
EXTT1=
EXTT2=
EXTT3=
EXTT4=
EXTT5=
EXTT6=
EXTT7=
EXTT8=
EXTT9=
PLAYORDER=
